<svg xmlns="http://www.w3.org/2000/svg" viewBox="0 0 96 96" role="img" aria-labelledby="title desc">
  <title id="title">Trident Joinery oak leaf logo mark</title>
  <desc id="desc">A clean oak leaf logo mark in oak and charcoal colours for Trident Joinery Services.</desc>
  <defs>
    <linearGradient id="leaf" x1="24" x2="72" y1="12" y2="84" gradientUnits="userSpaceOnUse">
      <stop offset="0" stop-color="#d8a45f"/>
      <stop offset="0.52" stop-color="#b67a36"/>
      <stop offset="1" stop-color="#74491f"/>
    </linearGradient>
  </defs>
  <rect width="96" height="96" rx="0" fill="#24282a"/>
  <path fill="url(#leaf)" d="M48 12c5 4.4 7.2 9.3 6.8 14.7 5.6-3.4 11.1-3.8 16.4-1.1 1.1 5.5-.4 10.5-4.5 15 6.1.5 10.7 3.1 13.9 7.8-2.1 5.4-6.1 8.8-12.1 10.2 3.4 4.2 4.8 8.8 4.1 13.8-5.5 2.5-10.9 2.1-16.2-1.2-1.9 4.8-4.7 8.7-8.4 11.8-3.7-3.1-6.5-7-8.4-11.8-5.3 3.3-10.7 3.7-16.2 1.2-.7-5  .7-9.6 4.1-13.8-6-1.4-10-4.8-12.1-10.2 3.2-4.7 7.8-7.3 13.9-7.8-4.1-4.5-5.6-9.5-4.5-15 5.3-2.7 10.8-2.3 16.4 1.1C40.8 21.3 43 16.4 48 12Z"/>
  <path fill="#f7f4ef" d="M45.8 25h4.4v45h-4.4z"/>
  <path fill="#f7f4ef" d="M48 45.8c5.6-5.4 11.2-8.9 16.8-10.6l1.5 4.1C60.1 41.4 54 45.8 48 52.5 42 45.8 35.9 41.4 29.7 39.3l1.5-4.1c5.6 1.7 11.2 5.2 16.8 10.6Z"/>
  <path fill="#f7f4ef" d="M48 58.5c4.8-3.8 9.6-6.2 14.5-7.2l1 4.2c-5.3 1.2-10.5 4.2-15.5 9-5-4.8-10.2-7.8-15.5-9l1-4.2c4.9 1 9.7 3.4 14.5 7.2Z"/>
  <path fill="#151312" fill-opacity=".14" d="M50.2 15.2c3.4 3.8 4.9 8.2 4.6 13.1 5.1-3.2 10.1-3.7 15.1-1.5.4 4.7-1.1 9-4.7 13 5.5.7 9.8 3.1 12.8 7.1-2 4.4-5.9 7.2-11.7 8.6 3.4 3.7 4.8 7.8 4.2 12.4-5.2 1.8-10.2 1.1-15.1-2.3-1.1 4.3-2.8 8.1-5.2 11.3V15.2Z"/>
</svg>
